# xmcd
#
# Track frame offsets:
#	150
#	20181
#	42626
#	60805
#	77091
#	105264
#	123894
#	143187
#	174355
#	197681
#	229027
#
# Disc length: 3789 seconds
#
# Revision: 1
# Processed by: cddbd v1.5.1PL0 Copyright (c) Steve Scherf et al.
# Submitted via: audiograbber 1.83.01
#
DISCID=870ecb0b
DTITLE=The Zydeco Alligators - Big City Night
DYEAR=2003
DGENRE=Zydeco
TTITLE0=Zydeco Party 's In the House
TTITLE1=Gonna Be Alright
TTITLE2=Walkin' to New Orleans
TTITLE3=You Worry Me
TTITLE4=Jambalaya
TTITLE5=Better Man
TTITLE6=Hey Brother
TTITLE7=I Feel Alright
TTITLE8=You Never Get My Soul
TTITLE9='Dat Crawfish
TTITLE10=Old Fashioned Party
EXTD=
EXTT0=
EXTT1=
EXTT2=
EXTT3=
EXTT4=
EXTT5=
EXTT6=
EXTT7=
EXTT8=
EXTT9=
EXTT10=
PLAYORDER=
